<svg width="17" height="17" viewBox="0 0 17 17" fill="none" xmlns="http://www.w3.org/2000/svg">
<path d="M7.7915 12.0416H9.20817V9.20829H12.0415V7.79163H9.20817V4.95829H7.7915V7.79163H4.95817V9.20829H7.7915V12.0416ZM8.49984 15.5833C7.51998 15.5833 6.59914 15.4003 5.73734 15.0343C4.87553 14.6566 4.12588 14.1489 3.48838 13.5114C2.85088 12.8739 2.34324 12.1243 1.96546 11.2625C1.59949 10.4007 1.4165 9.47982 1.4165 8.49996C1.4165 7.5201 1.59949 6.59926 1.96546 5.73746C2.34324 4.87565 2.85088 4.126 3.48838 3.4885C4.12588 2.851 4.87553 2.34926 5.73734 1.98329C6.59914 1.60551 7.51998 1.41663 8.49984 1.41663C9.4797 1.41663 10.4005 1.60551 11.2623 1.98329C12.1241 2.34926 12.8738 2.851 13.5113 3.4885C14.1488 4.126 14.6505 4.87565 15.0165 5.73746C15.3943 6.59926 15.5832 7.5201 15.5832 8.49996C15.5832 9.47982 15.3943 10.4007 15.0165 11.2625C14.6505 12.1243 14.1488 12.8739 13.5113 13.5114C12.8738 14.1489 12.1241 14.6566 11.2623 15.0343C10.4005 15.4003 9.4797 15.5833 8.49984 15.5833ZM8.49984 14.1666C10.0818 14.1666 11.4217 13.6177 12.5196 12.5198C13.6175 11.4218 14.1665 10.0819 14.1665 8.49996C14.1665 6.91801 13.6175 5.57808 12.5196 4.48017C11.4217 3.38225 10.0818 2.83329 8.49984 2.83329C6.91789 2.83329 5.57796 3.38225 4.48005 4.48017C3.38213 5.57808 2.83317 6.91801 2.83317 8.49996C2.83317 10.0819 3.38213 11.4218 4.48005 12.5198C5.57796 13.6177 6.91789 14.1666 8.49984 14.1666Z" fill="#399E45"/>
</svg>
